<svg xmlns="http://www.w3.org/2000/svg" viewBox="0 0 1920 1080"><defs><style>.cls-1{fill:#f6f6f6;}</style></defs><title>MAGICAEArtboard 4</title><g id="Layer_5" data-name="Layer 5"><path class="cls-1" d="M1029.42,7.31l-.21-.21a8.12,8.12,0,0,0-11.48,0L982.87,42a8.11,8.11,0,0,1-11.47,0h0a8.12,8.12,0,0,0-11.48,0L757.67,244.2a8.12,8.12,0,0,0,0,11.48l.21.21a8.12,8.12,0,0,0,11.48,0L804.22,221a8.11,8.11,0,0,1,11.47,0h0a8.12,8.12,0,0,1,0,11.48L702.78,345.43a8.12,8.12,0,0,0,0,11.48l.21.21a8.12,8.12,0,0,0,11.48,0L898.35,173.24a8.12,8.12,0,0,0,0-11.48l-.21-.21a8.12,8.12,0,0,1,0-11.48L1029.42,18.79A8.12,8.12,0,0,0,1029.42,7.31Z"/><path class="cls-1" d="M1427.78,377.74l.21.21a8.12,8.12,0,0,0,11.48,0l34.86-34.85a8.12,8.12,0,0,1,11.48,0h0a8.12,8.12,0,0,0,11.48,0l202.24-202.25a8.12,8.12,0,0,0,0-11.48l-.21-.21a8.12,8.12,0,0,0-11.48,0L1653,164a8.12,8.12,0,0,1-11.48,0h0a8.12,8.12,0,0,1,0-11.48L1754.42,39.63a8.12,8.12,0,0,0,0-11.48l-.21-.21a8.12,8.12,0,0,0-11.48,0L1558.86,211.82a8.11,8.11,0,0,0,0,11.47l.2.21a8.12,8.12,0,0,1,0,11.48L1427.78,366.26A8.12,8.12,0,0,0,1427.78,377.74Z"/><path class="cls-1" d="M967.26,565.1l.21.21a8.12,8.12,0,0,0,11.48,0l26.92-26.93a8.14,8.14,0,0,1,11.48,0l.21.21a8.12,8.12,0,0,1,0,11.48l-143,143a8.12,8.12,0,0,0,0,11.48l.21.21a8.12,8.12,0,0,0,11.48,0l218.94-218.94a8.12,8.12,0,0,0,0-11.48l-.21-.21a8.12,8.12,0,0,1,0-11.48l167.18-167.18a8.12,8.12,0,0,0,0-11.48l-.21-.21a8.12,8.12,0,0,0-11.48,0L1075,469.3a8.12,8.12,0,0,1-11.48,0l-.21-.21a8.12,8.12,0,0,1,0-11.48l49.46-49.46a8.12,8.12,0,0,0,0-11.48l-.2-.21a8.12,8.12,0,0,0-11.48,0L917.17,580.34a8.12,8.12,0,0,0,0,11.48l.21.2a8.12,8.12,0,0,0,11.48,0l26.92-26.92A8.12,8.12,0,0,1,967.26,565.1Z"/><path class="cls-1" d="M547.86,732.34l-57,57a8.12,8.12,0,0,0,0,11.48l.21.21a8.12,8.12,0,0,1,0,11.48l-18.58,18.58a8.12,8.12,0,0,0,0,11.48l.21.2a8.12,8.12,0,0,0,11.48,0l57-57a8.12,8.12,0,0,0,0-11.48l-.21-.21a8.12,8.12,0,0,1,0-11.48L559.55,744a8.12,8.12,0,0,0,0-11.48l-.21-.2A8.12,8.12,0,0,0,547.86,732.34Z"/><path class="cls-1" d="M1365.42,792.55l40.28-40.29a8.11,8.11,0,0,0,0-11.47l-.21-.21a8.11,8.11,0,0,0-11.47,0L1279.43,855.16a8.12,8.12,0,0,1-11.48,0l-.21-.21a8.12,8.12,0,0,1,0-11.48l31.1-31.1a8.11,8.11,0,0,0,0-11.47l-.21-.21a8.12,8.12,0,0,0-11.48,0L1106.62,981.22a8.12,8.12,0,0,0,0,11.48l.21.21a8.11,8.11,0,0,0,11.47,0l101.23-101.22a8.12,8.12,0,0,1,11.48,0l.21.2a8.12,8.12,0,0,1,0,11.48l-22.75,22.75a8.12,8.12,0,0,0,0,11.48l.21.21a8.12,8.12,0,0,0,11.48,0l65.32-65.33a8.12,8.12,0,0,1,11.48,0l.21.21a8.12,8.12,0,0,0,11.48,0l57-57a8.12,8.12,0,0,0,0-11.48l-.21-.2A8.12,8.12,0,0,1,1365.42,792.55Z"/><path class="cls-1" d="M1793.15,547.61,1727.82,613a8.12,8.12,0,0,0,0,11.47l.21.21a8.12,8.12,0,0,1,0,11.48l-25.26,25.25a8.11,8.11,0,0,1-11.47,0l-.21-.21a8.12,8.12,0,0,0-11.48,0l-42.79,42.79a8.12,8.12,0,0,1-11.48,0l-.21-.21a8.12,8.12,0,0,1,0-11.48l98.73-98.73a8.11,8.11,0,0,0,0-11.47l-.21-.21a8.12,8.12,0,0,1,0-11.48L1819,475a8.12,8.12,0,0,1,11.48,0l.21.21a8.12,8.12,0,0,1,0,11.48l-37.78,37.78a8.12,8.12,0,0,0,0,11.48l.21.21A8.12,8.12,0,0,1,1793.15,547.61Z"/><path class="cls-1" d="M304,223.51l-65.33,65.34a8.13,8.13,0,0,0,0,11.48l.21.21a8.11,8.11,0,0,1,0,11.47l-25.26,25.26a8.12,8.12,0,0,1-11.48,0l-.2-.21a8.12,8.12,0,0,0-11.48,0l-42.79,42.78a8.12,8.12,0,0,1-11.48,0l-.21-.21a8.12,8.12,0,0,1,0-11.48l98.73-98.72a8.12,8.12,0,0,0,0-11.48l-.21-.21a8.12,8.12,0,0,1,0-11.48l95.38-95.38a8.12,8.12,0,0,1,11.48,0l.21.21a8.12,8.12,0,0,1,0,11.48L303.8,200.34a8.12,8.12,0,0,0,0,11.48l.21.21A8.12,8.12,0,0,1,304,223.51Z"/><path class="cls-1" d="M173.18,934.32l.21.21a8.12,8.12,0,0,1,0,11.48l-96.21,96.22a8.12,8.12,0,0,1-11.48,0l-.21-.21A8.12,8.12,0,0,0,54,1042l-36.11,36.1a8.12,8.12,0,0,1-11.48,0l-.21-.21a8.12,8.12,0,0,1,0-11.48L114.12,958.54a8.12,8.12,0,0,0,0-11.48l-.21-.21a8.12,8.12,0,0,1,0-11.48l84.53-84.54a8.14,8.14,0,0,1,11.48,0l.21.21a8.12,8.12,0,0,0,11.48,0l40.28-40.28a8.12,8.12,0,0,1,11.48,0l.21.21a8.12,8.12,0,0,1,0,11.48L173.18,922.84A8.12,8.12,0,0,0,173.18,934.32Z"/><circle class="cls-1" cx="170.44" cy="173.52" r="8.26"/><circle class="cls-1" cx="222.96" cy="683.57" r="8.26"/><circle class="cls-1" cx="885.32" cy="374.23" r="8.26"/><circle class="cls-1" cx="470.52" cy="318.74" r="8.26"/><circle class="cls-1" cx="1031.72" cy="25.94" r="8.26"/><circle class="cls-1" cx="1264.31" cy="502.93" r="8.26"/></g></svg>