<svg xmlns="http://www.w3.org/2000/svg" width="189.313" height="167.885" viewBox="0 0 189.313 167.885">
  <path id="Union_84" data-name="Union 84" d="M10160.441,2146.885a13.105,13.105,0,0,1-11.3-19.628l3.768-6.549a13.068,13.068,0,0,1,11.3-6.541h66.036l-29.223-50.731-18.448-32.031-47.751,82.95-15.009,26.028a12.992,12.992,0,0,1-11.236,6.5h-7.618a13.031,13.031,0,0,1-11.236-19.517l81.7-141.883a12.979,12.979,0,0,1,22.476,0l7.1,12.329.022-.039,18.9,32.836,48.128,83.556,7.54,13.107a13.107,13.107,0,0,1-11.313,19.611Z" transform="translate(-10088 -1979)" fill="#fff"/>
</svg>